HIERARCHY
ROOT hip
{
  OFFSET 0 0 0
  CHANNELS 6 Xposition Yposition Zposition Zrotation Yrotation Xrotation
  JOINT abdomen
  {
    OFFSET 0 20.6881 -0.73152
    CHANNELS 3 Zrotation Xrotation Yrotation
    JOINT chest
    {
      OFFSET 0 11.7043 -0.48768
      CHANNELS 3 Zrotation Xrotation Yrotation
      JOINT neck
      {
        OFFSET 0 22.1894 -2.19456
        CHANNELS 3 Zrotation Xrotation Yrotation
        JOINT head
        {
          OFFSET -0.24384 7.07133 1.2192
          CHANNELS 3 Zrotation Xrotation Yrotation
          JOINT leftEye
          {
            OFFSET 4.14528 8.04674 8.04672
            CHANNELS 3 Zrotation Xrotation Yrotation
            End Site
            {
              OFFSET 1 0 0
            }
          }
          JOINT rightEye
          {
            OFFSET -3.6576 8.04674 8.04672
            CHANNELS 3 Zrotation Xrotation Yrotation
            End Site
            {
              OFFSET 1 0 0
            }
          }
        }
      }
      JOINT rCollar
      {
        OFFSET -2.68224 19.2634 -4.8768
        CHANNELS 3 Zrotation Xrotation Yrotation
        JOINT rShldr
        {
          OFFSET -8.77824 -1.95073 1.46304
          CHANNELS 3 Zrotation Xrotation Yrotation
          JOINT rForeArm
          {
            OFFSET -28.1742 -1.7115 0.48768
            CHANNELS 3 Zrotation Xrotation Yrotation
            JOINT rHand
            {
              OFFSET -22.5879 0.773209 7.07136
              CHANNELS 3 Zrotation Xrotation Yrotation
              JOINT rThumb1
              {
                OFFSET -1.2192 -0.487915 3.41376
                CHANNELS 3 Zrotation Xrotation Yrotation
                JOINT rThumb2
                {
                  OFFSET -3.37035 -0.52449 3.41376
                  CHANNELS 3 Zrotation Xrotation Yrotation
                  End Site
                  {
                    OFFSET -1.78271 -1.18214 1.43049
                  }
                }
              }
              JOINT rIndex1
              {
                OFFSET -7.75947 0.938293 5.60832
                CHANNELS 3 Zrotation Xrotation Yrotation
                JOINT rIndex2
                {
                  OFFSET -2.54057 -0.884171 1.56538
                  CHANNELS 3 Zrotation Xrotation Yrotation
                  End Site
                  {
                    OFFSET -1.62519 -0.234802 1.16502
                  }
                }
              }
              JOINT rMid1
              {
                OFFSET -8.24714 1.18213 3.41376
                CHANNELS 3 Zrotation Xrotation Yrotation
                JOINT rMid2
                {
                  OFFSET -3.10165 -0.590103 1.0647
                  CHANNELS 3 Zrotation Xrotation Yrotation
                  End Site
                  {
                    OFFSET -2.48547 -0.328903 0.83742
                  }
                }
              }
              JOINT rRing1
              {
                OFFSET -8.82822 0.546677 1.51678
                CHANNELS 3 Zrotation Xrotation Yrotation
                JOINT rRing2
                {
                  OFFSET -2.60934 -0.819778 -0.0198488
                  CHANNELS 3 Zrotation Xrotation Yrotation
                  End Site
                  {
                    OFFSET -2.33842 -0.294052 0.168128
                  }
                }
              }
              JOINT rPinky1
              {
                OFFSET -8.27202 -0.0477905 -0.4584
                CHANNELS 3 Zrotation Xrotation Yrotation
                JOINT rPinky2
                {
                  OFFSET -1.82734 -0.647385 -0.700984
                  CHANNELS 3 Zrotation Xrotation Yrotation
                  End Site
                  {
                    OFFSET -1.69225 -0.51767 -0.607171
                  }
                }
              }
            }
          }
        }
      }
      JOINT lCollar
      {
        OFFSET 2.68224 19.2634 -4.8768
        CHANNELS 3 Zrotation Xrotation Yrotation
        JOINT lShldr
        {
          OFFSET 8.77824 -1.95073 1.46304
          CHANNELS 3 Zrotation Xrotation Yrotation
          JOINT lForeArm
          {
            OFFSET 28.1742 -1.7115 0.48768
            CHANNELS 3 Zrotation Xrotation Yrotation
            JOINT lHand
            {
              OFFSET 22.5879 0.773209 7.07136
              CHANNELS 3 Zrotation Xrotation Yrotation
              JOINT lThumb1
              {
                OFFSET 1.2192 -0.487915 3.41376
                CHANNELS 3 Zrotation Xrotation Yrotation
                JOINT lThumb2
                {
                  OFFSET 3.37035 -0.52449 3.41376
                  CHANNELS 3 Zrotation Xrotation Yrotation
                  End Site
                  {
                    OFFSET 1.78271 -1.18214 1.43049
                  }
                }
              }
              JOINT lIndex1
              {
                OFFSET 7.75947 0.938293 5.60832
                CHANNELS 3 Zrotation Xrotation Yrotation
                JOINT lIndex2
                {
                  OFFSET 2.54057 -0.884171 1.56538
                  CHANNELS 3 Zrotation Xrotation Yrotation
                  End Site
                  {
                    OFFSET 1.62519 -0.234802 1.16502
                  }
                }
              }
              JOINT lMid1
              {
                OFFSET 8.24714 1.18213 3.41376
                CHANNELS 3 Zrotation Xrotation Yrotation
                JOINT lMid2
                {
                  OFFSET 3.10165 -0.590103 1.0647
                  CHANNELS 3 Zrotation Xrotation Yrotation
                  End Site
                  {
                    OFFSET 2.48547 -0.328903 0.83742
                  }
                }
              }
              JOINT lRing1
              {
                OFFSET 8.82822 0.546677 1.51678
                CHANNELS 3 Zrotation Xrotation Yrotation
                JOINT lRing2
                {
                  OFFSET 2.60934 -0.819778 -0.0198488
                  CHANNELS 3 Zrotation Xrotation Yrotation
                  End Site
                  {
                    OFFSET 2.33842 -0.294052 0.168128
                  }
                }
              }
              JOINT lPinky1
              {
                OFFSET 8.27202 -0.0477905 -0.4584
                CHANNELS 3 Zrotation Xrotation Yrotation
                JOINT lPinky2
                {
                  OFFSET 1.82734 -0.647385 -0.700984
                  CHANNELS 3 Zrotation Xrotation Yrotation
                  End Site
                  {
                    OFFSET 1.69225 -0.51767 -0.607171
                  }
                }
              }
            }
          }
        }
      }
    }
  }
  JOINT rButtock
  {
    OFFSET -8.77824 4.35084 1.2192
    CHANNELS 3 Zrotation Xrotation Yrotation
    JOINT rThigh
    {
      OFFSET 0 -1.70687 -2.19456
      CHANNELS 3 Zrotation Xrotation Yrotation
      JOINT rShin
      {
        OFFSET 0 -36.8199 0.73152
        CHANNELS 3 Zrotation Xrotation Yrotation
        JOINT rFoot
        {
          OFFSET 0.73152 -45.1104 -5.12064
          CHANNELS 3 Zrotation Xrotation Yrotation
          End Site
          {
            OFFSET -1.1221 -3.69964 12.103
          }
        }
      }
    }
  }
  JOINT lButtock
  {
    OFFSET 8.77824 4.35084 1.2192
    CHANNELS 3 Zrotation Xrotation Yrotation
    JOINT lThigh
    {
      OFFSET 0 -1.70687 -2.19456
      CHANNELS 3 Zrotation Xrotation Yrotation
      JOINT lShin
      {
        OFFSET 0 -36.8199 0.73152
        CHANNELS 3 Zrotation Xrotation Yrotation
        JOINT lFoot
        {
          OFFSET -0.73152 -45.1104 -5.12064
          CHANNELS 3 Zrotation Xrotation Yrotation
          End Site
          {
            OFFSET 1.1221 -3.69964 12.103
          }
        }
      }
    }
  }
}
MOTION
Frames:	8
Frame Time:	0.00833333
-81.7546 66.1478 -3.89273 -173.473 -1.5934 -169.033 -1.18647 54.5222 9.14348 2.35704 -8.85759 -0.786227 -12.4647 6.43356 -2.30941 55.8261 -71.2401 21.946 -0.0 0.0 0.0 -0.0 0.0 0.0 -1.13793e-13 5.20813e-14 -1.76378e-13 45.4355 -37.8922 14.5093 -27.8254 -29.6463 66.6698 -1.74476 -34.6947 -5.58313 4.81953e-10 1.81103e-10 4.92398e-10 8.14205e-10 3.618e-10 8.65995e-10 4.81952e-10 1.81106e-10 4.92395e-10 7.73091 5.47488 0.417314 4.81944e-10 1.81116e-10 4.92398e-10 2.90554 0.965183 0.102902 4.81959e-10 1.81106e-10 4.92403e-10 10.2786 0.731801 0.0259123 4.81951e-10 1.81107e-10 4.92412e-10 2.22167 -0.733487 -0.20892 -1.13934e-13 5.20811e-14 -1.76682e-13 -42.7799 -7.60369 -2.33601 28.1808 -31.8605 -70.2673 2.37904 -39.4212 6.6341 8.40492e-10 9.03312e-10 2.29124e-09 1.38158e-09 1.41556e-09 3.9724e-09 8.40494e-10 9.03309e-10 2.29125e-09 -7.73091 5.47488 -0.417314 8.40493e-10 9.03311e-10 2.29124e-09 -2.90554 0.965183 -0.102902 8.40486e-10 9.03311e-10 2.29124e-09 -10.2786 0.731801 -0.0259123 8.40499e-10 9.03312e-10 2.29123e-09 -2.22167 -0.733487 0.20892 -2.03217e-16 0.0 -3.88251e-19 -48.9658 -49.3117 -48.3268 -6.5067 81.7632 6.66113 -7.21523 -10.2382 -17.8573 2.03217e-16 0.0 3.88251e-19 68.1102 -53.3221 78.3876 22.0541 87.3052 -22.5591 -3.19898 -5.3569 -13.3766
-79.9772 65.875 -4.17795 -173.385 -1.057 -168.709 -0.561289 54.4159 8.72932 2.10772 -8.93982 -0.846546 -12.3936 6.39829 -2.08007 56.395 -71.7983 22.9715 -0.0 0.0 0.0 -0.0 0.0 0.0 -1.65443e-13 9.48883e-15 -1.70484e-13 45.1615 -37.1098 13.7529 -27.9204 -30.1458 67.4628 -1.6959 -34.2779 -5.49661 6.12065e-11 2.03825e-10 1.56631e-10 1.0008e-10 3.63895e-10 2.73752e-10 6.12056e-11 2.03828e-10 1.56626e-10 7.73091 5.47488 0.417314 6.12015e-11 2.03832e-10 1.56629e-10 2.90554 0.965183 0.102902 6.12103e-11 2.03826e-10 1.56637e-10 10.2786 0.731801 0.0259123 6.12021e-11 2.03827e-10 1.56646e-10 2.22167 -0.733487 -0.20892 -1.65514e-13 9.49445e-15 -1.70753e-13 -44.4095 -7.33718 -2.24014 28.2089 -32.0715 -70.5899 2.35948 -39.2904 6.6032 4.75963e-10 4.67967e-10 1.32307e-09 7.80542e-10 7.22376e-10 2.29372e-09 4.75964e-10 4.67961e-10 1.32309e-09 -7.73091 5.47488 -0.417314 4.75963e-10 4.67963e-10 1.32308e-09 -2.90554 0.965183 -0.102902 4.75955e-10 4.67964e-10 1.32307e-09 -10.2786 0.731801 -0.0259123 4.75975e-10 4.67966e-10 1.32307e-09 -2.22167 -0.733487 0.20892 -2.03217e-16 0.0 -3.88251e-19 -49.8307 -49.1046 -46.3882 -4.21293 78.0141 4.27543 -8.17573 -10.1691 -20.5446 2.03217e-16 0.0 3.88251e-19 65.6709 -53.2707 75.8664 16.3128 86.4691 -16.8327 -3.93656 -14.0087 -10.8541
-78.3038 65.3455 -4.3898 -173.266 -1.0221 -168.437 -0.158497 54.5291 8.17174 2.10666 -8.99451 -0.50867 -12.3198 6.33944 -1.84458 56.966 -72.4121 24.0324 -0.0 0.0 0.0 -0.0 0.0 0.0 -1.84471e-13 -1.59074e-14 -1.52716e-13 44.9755 -36.5171 13.3191 -27.9937 -30.5746 68.1665 -1.66182 -33.9794 -5.43536 -2.32037e-10 2.36907e-10 -6.84932e-11 -3.98012e-10 3.95276e-10 -1.2386e-10 -2.32038e-10 2.36908e-10 -6.84996e-11 7.73091 5.47488 0.417314 -2.3204e-10 2.36909e-10 -6.84964e-11 2.90554 0.965183 0.102902 -2.32035e-10 2.36907e-10 -6.84869e-11 10.2786 0.731801 0.0259123 -2.32044e-10 2.36908e-10 -6.84773e-11 2.22167 -0.733487 -0.20892 -1.84485e-13 -1.58985e-14 -1.52965e-13 -45.8455 -7.09271 -2.26155 28.2165 -32.1146 -70.6384 2.3564 -39.2701 6.59837 2.97309e-10 2.81606e-10 6.94057e-10 4.90483e-10 4.38179e-10 1.20513e-09 2.97309e-10 2.81602e-10 6.94077e-10 -7.73091 5.47488 -0.417314 2.97309e-10 2.81602e-10 6.94061e-10 -2.90554 0.965183 -0.102902 2.97299e-10 2.81602e-10 6.9406e-10 -10.2786 0.731801 -0.0259123 2.97322e-10 2.81605e-10 6.94051e-10 -2.22167 -0.733487 0.20892 -2.03217e-16 0.0 -3.88251e-19 -50.5398 -48.7053 -44.5196 -3.05613 74.3008 3.06994 -8.92816 -10.066 -22.7798 2.03217e-16 0.0 3.88251e-19 64.6124 -53.0917 74.0865 14.2969 86.0157 -14.8047 -3.93487 -19.1963 -9.35844
-76.6023 64.9661 -4.62211 -173.286 -0.9373 -168.363 -0.0445462 54.9326 7.34659 2.5023 -9.00631 0.508411 -12.2752 6.24222 -1.37385 57.2364 -73.3208 24.7606 -0.0 0.0 0.0 -0.0 0.0 0.0 -1.52421e-13 -1.62549e-14 -1.12841e-13 44.8977 -36.2423 13.2608 -28.0474 -30.9159 68.7345 -1.64119 -33.7959 -5.39796 -3.63343e-10 2.78689e-10 -1.53876e-10 -6.2176e-10 4.5561e-10 -2.75813e-10 -3.63343e-10 2.7869e-10 -1.53882e-10 7.73091 5.47488 0.417314 -3.63344e-10 2.7869e-10 -1.53879e-10 2.90554 0.965183 0.102902 -3.63339e-10 2.7869e-10 -1.5387e-10 10.2786 0.731801 0.0259123 -3.63351e-10 2.78691e-10 -1.5386e-10 2.22167 -0.733487 -0.20892 -1.52385e-13 -1.62463e-14 -1.13094e-13 -47.0308 -6.85587 -2.45134 28.1945 -31.9691 -70.4504 2.38045 -39.4319 6.63651 4.30874e-10 5.2669e-10 5.46505e-10 7.25304e-10 8.67896e-10 9.55886e-10 4.30873e-10 5.26693e-10 5.46525e-10 -7.73091 5.47488 -0.417314 4.30877e-10 5.26691e-10 5.46506e-10 -2.90554 0.965183 -0.102902 4.30865e-10 5.26687e-10 5.46506e-10 -10.2786 0.731801 -0.0259123 4.30886e-10 5.26691e-10 5.46498e-10 -2.22167 -0.733487 0.20892 -2.03217e-16 0.0 -3.88251e-19 -50.9479 -48.0508 -42.5489 -2.31246 70.4716 2.34672 -9.40746 -9.90252 -24.498 2.03217e-16 0.0 3.88251e-19 65.7954 -52.9271 73.5513 15.3838 86.242 -15.8365 -3.7207 -19.1309 -9.21898
-74.8789 64.7549 -4.94347 -173.456 -0.6707 -168.497 -0.115846 55.5042 6.27764 3.18426 -8.99246 2.00061 -12.2508 6.12781 -0.743467 57.2955 -74.4179 25.2722 -0.0 0.0 0.0 -0.0 0.0 0.0 -8.61125e-14 -2.78559e-15 -5.35973e-14 44.8602 -36.176 13.4412 -28.091 -31.2006 69.1914 -1.62595 -33.659 -5.37017 -4.17172e-10 3.20545e-10 -1.74621e-10 -7.14252e-10 5.22549e-10 -3.14151e-10 -4.17172e-10 3.20545e-10 -1.74625e-10 7.73091 5.47488 0.417314 -4.17173e-10 3.20547e-10 -1.74623e-10 2.90554 0.965183 0.102902 -4.17166e-10 3.20546e-10 -1.74615e-10 10.2786 0.731801 0.0259123 -4.17181e-10 3.20548e-10 -1.74604e-10 2.22167 -0.733487 -0.20892 -8.60283e-14 -2.77956e-15 -5.38706e-14 -48.0467 -6.59423 -2.78826 28.1472 -31.6648 -70.0467 2.4237 -39.718 6.70455 7.36883e-10 1.01146e-09 6.35785e-10 1.25092e-09 1.6961e-09 1.12019e-09 7.36882e-10 1.01147e-09 6.35803e-10 -7.73091 5.47488 -0.417314 7.3689e-10 1.01146e-09 6.35783e-10 -2.90554 0.965183 -0.102902 7.36878e-10 1.01146e-09 6.35785e-10 -10.2786 0.731801 -0.0259123 7.36892e-10 1.01146e-09 6.35777e-10 -2.22167 -0.733487 0.20892 -2.03217e-16 0.0 -3.88251e-19 -51.2571 -47.1949 -40.6307 -1.75381 66.4569 1.85815 -9.67877 -9.63606 -25.905 2.03217e-16 0.0 3.88251e-19 68.5859 -52.819 73.9707 19.9109 86.9968 -20.2816 -3.39588 -15.5881 -9.92644
-73.2125 64.5978 -5.37159 -173.947 -0.2661 -168.978 -0.237249 56.1671 5.17484 3.90113 -8.9673 3.48865 -12.1799 6.01375 -0.412367 57.8437 -75.245 26.3955 -0.0 0.0 0.0 -0.0 0.0 0.0 -1.44636e-14 1.5256e-14 4.04325e-15 44.8204 -36.1248 13.8106 -28.1307 -31.4656 69.6038 -1.62237 -33.6277 -5.36377 -4.0766e-10 3.72677e-10 -1.39871e-10 -6.99371e-10 6.13602e-10 -2.54654e-10 -4.07658e-10 3.72676e-10 -1.39875e-10 7.73091 5.47488 0.417314 -4.0766e-10 3.72679e-10 -1.39872e-10 2.90554 0.965183 0.102902 -4.07651e-10 3.72679e-10 -1.39867e-10 10.2786 0.731801 0.0259123 -4.07668e-10 3.72681e-10 -1.39855e-10 2.22167 -0.733487 -0.20892 -1.43456e-14 1.52589e-14 3.75051e-15 -48.9546 -6.36451 -3.17261 28.0827 -31.2161 -69.3387 2.46881 -40.0101 6.7748 1.03589e-09 1.46919e-09 8.25173e-10 1.76161e-09 2.47327e-09 1.45655e-09 1.03589e-09 1.46921e-09 8.2519e-10 -7.73091 5.47488 -0.417314 1.0359e-09 1.4692e-09 8.25168e-10 -2.90554 0.965183 -0.102902 1.03589e-09 1.46919e-09 8.25171e-10 -10.2786 0.731801 -0.0259123 1.0359e-09 1.46919e-09 8.25164e-10 -2.22167 -0.733487 0.20892 -2.03217e-16 0.0 -3.88251e-19 -51.7092 -46.2604 -39.1148 -1.34911 62.6682 1.53259 -9.8294 -9.39619 -26.9934 2.03217e-16 0.0 3.88251e-19 71.5039 -52.5573 74.4308 27.5569 87.7383 -27.8431 -2.92854 -11.0541 -10.9781
-71.4308 64.066 -5.85197 -174.847 0.3648 -169.571 -0.298119 56.8517 4.26833 4.4035 -8.95222 4.49364 -11.9999 5.91837 -0.839073 59.5736 -75.3231 28.94 -0.0 0.0 0.0 -0.0 0.0 0.0 3.36095e-14 2.86254e-14 3.91109e-14 44.732 -35.8954 14.3178 -28.1698 -31.7441 70.0417 -1.6369 -33.7611 -5.39064 -3.48939e-10 4.45287e-10 -5.87735e-11 -6.01e-10 7.46279e-10 -1.13104e-10 -3.48936e-10 4.45286e-10 -5.87767e-11 7.73091 5.47488 0.417314 -3.48939e-10 4.45288e-10 -5.87735e-11 2.90554 0.965183 0.102902 -3.48929e-10 4.45289e-10 -5.87703e-11 10.2786 0.731801 0.0259123 -3.48947e-10 4.45292e-10 -5.87576e-11 2.22167 -0.733487 -0.20892 3.3731e-14 2.86262e-14 3.88127e-14 -49.8189 -6.22353 -3.50499 28.0017 -30.6224 -68.2429 2.49711 -40.1901 6.81851 1.14845e-09 1.63318e-09 9.77944e-10 1.95165e-09 2.74989e-09 1.72346e-09 1.14845e-09 1.63321e-09 9.7796e-10 -7.73091 5.47488 -0.417314 1.14847e-09 1.6332e-09 9.77938e-10 -2.90554 0.965183 -0.102902 1.14845e-09 1.63318e-09 9.77941e-10 -10.2786 0.731801 -0.0259123 1.14845e-09 1.63319e-09 9.77935e-10 -2.22167 -0.733487 0.20892 -2.03217e-16 0.0 -3.88251e-19 -52.4914 -45.3971 -38.3054 -1.0864 59.5168 1.31786 -9.95713 -9.30655 -27.7564 2.03217e-16 0.0 3.88251e-19 73.0883 -51.9421 74.0442 31.693 87.9889 -31.9163 -2.5127 -7.98349 -11.8465
-69.5374 63.6198 -6.49994 -175.628 0.9903 -170.834 -0.341059 57.684 3.67632 4.65393 -8.96441 4.82617 -11.6259 5.86885 -2.55319 62.9907 -74.1747 33.5719 -0.0 0.0 0.0 -0.0 0.0 0.0 4.59535e-14 3.73473e-14 4.30567e-14 44.587 -35.3882 14.9497 -28.2152 -32.0918 70.5916 -1.6928 -34.2568 -5.49186 -2.14957e-10 5.48374e-10 1.00376e-10 -3.75507e-10 9.42523e-10 1.6662e-10 -2.14954e-10 5.48372e-10 1.00372e-10 7.73091 5.47488 0.417314 -2.14958e-10 5.48368e-10 1.00376e-10 2.90554 0.965183 0.102902 -2.14948e-10 5.48375e-10 1.00378e-10 10.2786 0.731801 0.0259123 -2.14965e-10 5.48379e-10 1.00391e-10 2.22167 -0.733487 -0.20892 4.60278e-14 3.73471e-14 4.27764e-14 -50.6008 -6.19617 -3.80797 27.8601 -29.7402 -66.6398 2.49796 -40.1951 6.81976 9.78972e-10 1.33084e-09 1.16558e-09 1.65388e-09 2.22946e-09 2.04095e-09 9.78971e-10 1.33088e-09 1.16559e-09 -7.73091 5.47488 -0.417314 9.78984e-10 1.33086e-09 1.16557e-09 -2.90554 0.965183 -0.102902 9.78971e-10 1.33085e-09 1.16557e-09 -10.2786 0.731801 -0.0259123 9.78974e-10 1.33085e-09 1.16557e-09 -2.22167 -0.733487 0.20892 -2.03217e-16 0.0 -3.88251e-19 -53.6307 -44.512 -38.2132 -0.927272 56.9875 1.16781 -10.1078 -9.54076 -28.0475 2.03217e-16 0.0 3.88251e-19 72.8182 -50.7669 72.597 25.9788 87.6004 -26.1644 -2.36074 -7.11414 -12.376
